<?xml version="1.0" encoding="utf-8"?>
<!-- Generator: Adobe Illustrator 22.0.0, SVG Export Plug-In . SVG Version: 6.00 Build 0)  -->
<svg version="1.1" id="logo" xmlns="http://www.w3.org/2000/svg" xmlns:xlink="http://www.w3.org/1999/xlink" x="0px" y="0px"
	 viewBox="0 0 170 170" style="enable-background:new 0 0 170 170;" xml:space="preserve">
<path d="M158.5,85c-8.9-15.3-22.4-27.5-38.7-34.8c-5.7-2.6-11.7-4.5-18-5.7c0,0,0,0,0,0c0,0,0,0,0,0c0.6,0.4,1.1,0.7,1.7,1.1
	c0.5,0.3,0.9,0.7,1.4,1c0.7,0.5,1.5,1.1,2.2,1.7c0,0,0.1,0.1,0.1,0.1c0.4,0.3,0.8,0.6,1.2,1l0.2,0.2c0,0,0,0,0.1,0
	c0.5,0.4,1,0.8,1.4,1.2c1.6,1.4,3.2,2.8,4.7,4.4c1.5,1.5,3,3.1,4.4,4.7c0.4,0.5,0.8,1,1.2,1.5c0.1,0.1,0.1,0.1,0.2,0.2
	c0.3,0.4,0.6,0.8,1,1.2c0.2,0.2,0.3,0.4,0.5,0.6c0.4,0.5,0.7,0.9,1.1,1.4c0,0,0,0.1,0.1,0.1c0.4,0.5,0.7,1,1,1.4
	c0.1,0.1,0.2,0.3,0.3,0.4c0,0,0,0.1,0.1,0.1c0.3,0.5,0.6,0.9,1,1.4c0,0,0,0,0,0v0l0.2,1c-0.1-0.3-0.1-0.7-0.2-1
	c0.4,0.7,0.9,1.3,1.3,2c0.4,0.7,0.8,1.4,1.2,2c0.3,0.6,0.6,1.1,1,1.7c0,0.1,0.1,0.1,0.1,0.2c0.2,0.4,0.4,0.8,0.6,1.2
	c0.3,0.6,0.6,1.2,0.9,1.7c0.3,0.7,0.7,1.3,1,2c0.1,0.1,0.1,0.3,0.2,0.4c0.2,0.5,0.5,1,0.7,1.6c0.6,1.3,1.1,2.7,1.7,4
	c6.3,16.6,7.2,34.9,2.7,51.9c-3.1,11.7-8.7,22.9-16.9,32.7c2.5,0.2,5.1,0.4,7.7,0.4c12.4,0,24.2-2.7,34.8-7.4
	c4.8-10.6,7.4-22.4,7.4-34.8c0-2.6-0.1-5.2-0.4-7.7C168.5,107.4,164.6,95.5,158.5,85z"/>
<path d="M11.5,85c8.9,15.3,22.4,27.5,38.7,34.8c0.8,0.3,1.5,0.7,2.3,1c0,0,0.1,0,0.1,0.1c0.5,0.2,1,0.4,1.5,0.6c0,0,0.1,0,0.1,0
	c0.7,0.3,1.3,0.5,2,0.8l0,0c0.4,0.1,0.7,0.3,1.1,0.4c0.5,0.2,1,0.3,1.5,0.5c0.1,0,0.1,0,0.2,0.1c0.6,0.2,1.3,0.4,1.9,0.6
	c0.1,0,0.3,0.1,0.5,0.1h0c0.7,0.2,1.3,0.4,2,0.6c0.4,0.1,0.8,0.2,1.1,0.3c0.4,0.1,0.8,0.2,1.2,0.3c0.8,0.2,1.6,0.3,2.3,0.5
	c-4.6-3.1-9-6.6-13-10.7c-4.1-4.1-7.6-8.4-10.7-13c-3.6-5.3-6.4-11-8.7-16.8c-6.3-16.6-7.2-34.9-2.7-52c3.1-11.7,8.7-22.9,16.9-32.7
	C47.4,0.1,44.8,0,42.3,0C29.8,0,18.1,2.7,7.4,7.4C2.7,18.1,0,29.8,0,42.3c0,2.6,0.1,5.2,0.4,7.7C1.5,62.6,5.4,74.5,11.5,85z"/>
<path d="M55.1,55.1c4.1-4.1,8.4-7.6,13-10.7c5.3-3.6,11-6.4,16.8-8.7c16.6-6.3,34.9-7.2,52-2.7c11.7,3.1,22.9,8.7,32.7,16.9
	c0.2-2.5,0.4-5.1,0.4-7.7c0-12.4-2.7-24.2-7.4-34.8C151.9,2.7,140.1,0,127.7,0c-2.6,0-5.1,0.1-7.7,0.4C107.4,1.5,95.5,5.4,85,11.5
	c-15.3,8.9-27.5,22.4-34.8,38.7c-2.6,5.7-4.5,11.7-5.8,18C47.5,63.6,51.1,59.2,55.1,55.1z"/>
<path d="M121.8,115.1c0.2-0.6,0.4-1.2,0.7-1.8c0-0.1,0-0.1,0.1-0.2c0-0.1,0.1-0.2,0.1-0.3c0.2-0.5,0.4-1.1,0.6-1.6
	c0.2-0.6,0.4-1.3,0.6-2c0.1-0.4,0.2-0.7,0.3-1.1c0-0.1,0-0.2,0.1-0.2c0.1-0.5,0.3-1,0.4-1.5c0.2-0.7,0.4-1.5,0.5-2.2
	c0-0.1,0-0.2,0.1-0.3v0c0.2-0.7,0.3-1.5,0.5-2.2c0,0,0,0,0,0c0,0,0,0,0,0c0,0.1-0.1,0.1-0.1,0.2c-0.3,0.5-0.7,1-1,1.5
	c-0.4,0.6-0.8,1.1-1.2,1.7c0,0,0,0.1-0.1,0.1c-0.3,0.5-0.7,0.9-1,1.3c-0.4,0.5-0.8,1-1.2,1.5c-0.3,0.3-0.6,0.7-0.8,1c0,0,0,0,0,0.1
	c0,0-0.1,0.1-0.1,0.1c-0.2,0.3-0.5,0.6-0.7,0.9c-1.4,1.6-2.8,3.2-4.4,4.7c-1.5,1.5-3.1,3-4.7,4.4c-0.2,0.2-0.5,0.4-0.7,0.6
	c-0.2,0.2-0.5,0.4-0.7,0.6c0,0,0,0-0.1,0c-0.1,0.1-0.1,0.1-0.2,0.2c-0.4,0.3-0.8,0.6-1.2,1c0,0-0.1,0.1-0.1,0.1
	c-0.4,0.3-0.7,0.6-1.1,0.8c-0.4,0.3-0.7,0.6-1.1,0.8c-0.5,0.3-0.9,0.7-1.4,1c-0.5,0.4-1,0.7-1.5,1c-0.1,0-0.1,0.1-0.2,0.1
	c0,0,0,0,0,0c0,0,0,0,0,0c0,0,0,0-0.1,0c-0.6,0.4-1.1,0.7-1.7,1.1c-0.2,0.1-0.4,0.3-0.6,0.4c-0.1,0.1-0.2,0.1-0.3,0.2
	c-0.4,0.2-0.7,0.4-1.1,0.7c-0.2,0.1-0.3,0.2-0.5,0.3c-0.6,0.4-1.3,0.7-1.9,1.1c-0.6,0.3-1.1,0.6-1.7,0.9c-0.1,0-0.1,0.1-0.2,0.1
	c-0.4,0.2-0.8,0.4-1.2,0.6c0,0-0.1,0.1-0.1,0.1c-0.4,0.2-0.9,0.4-1.3,0.6c-0.6,0.3-1.1,0.5-1.7,0.8c-0.5,0.2-1,0.4-1.5,0.6
	c-0.4,0.2-0.9,0.4-1.3,0.6c0,0,0,0,0,0c-0.5,0.2-1,0.4-1.5,0.6c-16.6,6.3-34.9,7.2-52,2.7c-11.7-3.1-22.9-8.7-32.7-16.9
	c-0.2,2.5-0.4,5.1-0.4,7.7c0,12.4,2.7,24.2,7.4,34.8c10.6,4.8,22.4,7.4,34.8,7.4c2.6,0,5.2-0.1,7.7-0.4c12.7-1.1,24.6-5.1,35.1-11.2
	c15.3-8.9,27.5-22.4,34.8-38.6c0.4-0.8,0.7-1.6,1-2.3C121.1,116.7,121.5,115.9,121.8,115.1z"/>
</svg>
